<svg width="91" height="41" viewBox="0 0 91 41" fill="none" xmlns="http://www.w3.org/2000/svg">
<path fill-rule="evenodd" clip-rule="evenodd" d="M64.0518 19.0828C64.6007 19.0828 65.0015 19.4851 65.0052 20.039L65.034 21.1271C65.034 21.6731 64.6632 22.0797 64.1325 22.1231C63.6826 22.1653 63.2853 22.1859 62.9203 22.1859C62.1486 22.1859 61.023 22.1101 60.1538 21.4541C59.2419 20.7659 58.7797 19.5683 58.7797 17.8949V7.32046V5.43773V1.5912C58.7797 1.10481 59.0787 0.727697 59.5596 0.607302L59.5902 0.600339L62.4814 1.33695e-05V5.43807V6.85313V17.6256C62.4758 18.2731 62.5853 18.6703 62.756 18.8421C62.9198 19.0073 63.2947 19.0848 63.9347 19.0848L63.9935 19.0842C64.0138 19.0832 64.0327 19.0828 64.0518 19.0828ZM16.4553 8.80576C17.6466 7.48173 19.306 6.75288 21.128 6.75288C22.9892 6.75288 24.5846 7.4013 25.7412 8.62815C27.0773 10.0459 27.7358 12.1592 27.5958 14.5798C27.5827 15.1142 27.1647 15.516 26.6201 15.516H18.3282C18.6378 17.7448 19.7954 19.0132 21.5437 19.0132C22.5892 19.0132 23.7415 18.7028 24.7064 18.1625C24.8737 18.0603 25.0492 18.0089 25.2285 18.0089C25.5728 18.0089 25.8793 18.2022 26.05 18.5273L26.6672 19.6069C26.8098 19.8402 26.8533 20.1034 26.7897 20.3501C26.7259 20.5984 26.5589 20.8092 26.3196 20.9439C24.8138 21.8453 23.0566 22.3417 21.3717 22.3417C19.4055 22.3417 17.729 21.6828 16.5243 20.4372C15.1916 19.0606 14.5162 17.0812 14.5162 14.5542C14.5162 12.2029 15.1868 10.2149 16.4553 8.80576ZM18.4875 12.4741H23.7321C23.4075 10.7173 22.1797 10.0811 21.1711 10.0811C19.8739 10.0811 18.9127 10.9465 18.4875 12.4741ZM0 15.3228V9.08825C0 8.60152 0.292035 8.1929 0.779921 8.10435C1.41573 7.98827 1.97393 7.86754 3.25019 7.51266C3.50995 7.44029 3.75718 7.36445 3.99937 7.29015C4.85995 7.02615 5.65698 6.78166 6.72658 6.78166C8.44762 6.78166 10.0101 7.46339 11.1262 8.70135C12.3575 10.0667 13.0081 12.061 13.0081 14.4682C13.0081 16.7319 12.431 18.6649 11.3393 20.0569C10.1676 21.5515 8.47315 22.3416 6.43836 22.3416H6.40619C5.34518 22.3308 4.49064 22.1618 3.71585 21.8021V27.5172C3.71585 28.0037 3.41685 28.3806 2.93577 28.5011C2.92682 28.5033 2.91819 28.5053 2.90956 28.507L0 29.0911V15.3228ZM8.42821 11.0841C7.94214 10.4471 7.23951 10.1239 6.33903 10.1239C5.30306 10.1239 3.71585 10.8498 3.71585 11.7434V17.6445C4.1583 18.553 4.94884 19.0131 6.06673 19.0131C7.26621 19.0131 9.27791 18.4228 9.27791 14.4682C9.27791 12.9626 8.99188 11.8241 8.42821 11.0841ZM72.0964 6.75288C70.275 6.75288 68.6151 7.48173 67.4241 8.80576C66.1552 10.2147 65.4852 12.2027 65.4852 14.5542C65.4852 17.0812 66.1603 19.0606 67.4924 20.4372C68.6975 21.6828 70.3736 22.3417 72.3406 22.3417C74.0256 22.3417 75.7828 21.8453 77.289 20.9439C77.5279 20.8092 77.6949 20.598 77.7585 20.3497C77.8214 20.1029 77.7784 19.8397 77.636 19.6074L77.0188 18.5268C76.8475 18.2022 76.5415 18.0089 76.1975 18.0089C76.0176 18.0089 75.842 18.0603 75.6747 18.1625C74.7097 18.7028 73.5575 19.0132 72.5123 19.0132C70.7637 19.0132 69.6062 17.7448 69.2967 15.516H77.5886C78.1335 15.516 78.5518 15.1138 78.5642 14.5796C78.7045 12.1592 78.046 10.0461 76.7095 8.62815C75.5532 7.4013 73.958 6.75288 72.0964 6.75288ZM74.6933 12.4741H69.4565C69.8816 10.9469 70.8424 10.0811 72.1398 10.0811C72.9119 10.0811 73.5676 10.3952 74.0363 10.9895C74.3503 11.3875 74.5772 11.9043 74.6933 12.4741ZM88.7134 7.26706C88.0224 7.02129 87.2683 6.87137 86.6693 6.85662L86.6709 6.85496L86.6523 6.85521L86.6337 6.85546C86.625 6.85531 86.6159 6.85494 86.6068 6.85457C86.5954 6.8541 86.5839 6.85363 86.5733 6.85363C86.4534 6.85363 86.3362 6.85944 86.2191 6.86806C85.3549 6.9177 84.7205 7.1066 83.9828 7.32621L83.9827 7.32623C83.779 7.3869 83.5673 7.44992 83.3407 7.51299C82.0646 7.86788 81.5066 7.9886 80.8704 8.10468C80.3829 8.19324 80.0905 8.60186 80.0905 9.08858V9.71924V15.3231V21.1221C80.0905 21.6872 80.5012 22.098 81.0664 22.098H82.8302C83.3958 22.098 83.8061 21.6872 83.8061 21.1221V13.2366C84.3101 10.9385 85.5253 10.4542 86.4587 10.4542C86.8468 10.4542 87.2587 10.5319 87.6838 10.6844C87.8025 10.7297 87.9297 10.7539 88.0529 10.7539C88.4932 10.7539 88.8458 10.4605 88.9497 10.0113L89.3352 8.43984C89.4632 7.92907 89.2086 7.44716 88.7134 7.26706ZM41.8717 13.8003V20.0351C41.8717 20.521 41.58 20.93 41.092 21.0188C40.456 21.1344 39.8978 21.2553 38.6216 21.6103C38.3616 21.6828 38.1141 21.7587 37.8716 21.8331L37.8714 21.8332C37.0112 22.0972 36.2144 22.3417 35.1453 22.3417C33.4243 22.3417 31.8616 21.6598 30.7455 20.422C29.5142 19.0559 28.8636 17.0621 28.8636 14.6549C28.8636 12.391 29.4405 10.4581 30.5324 9.06578C31.7039 7.57128 33.3987 6.78175 35.4335 6.78175H35.4655C36.5264 6.79219 37.3813 6.96085 38.1558 7.32071V1.60588C38.1558 1.11948 38.4548 0.742378 38.9361 0.621982C38.9433 0.620053 38.9504 0.618466 38.9578 0.616843L38.9623 0.615845L41.8717 0.0319403V13.8003ZM33.4436 18.0382C33.9295 18.6757 34.6322 18.9988 35.5328 18.9988C36.5688 18.9988 38.1558 18.2731 38.1558 17.3791V11.4785C37.7135 10.5702 36.923 10.1097 35.8048 10.1097C34.6056 10.1097 32.5937 10.7002 32.5937 14.6549C32.5937 16.1601 32.8796 17.299 33.4436 18.0382ZM56.3231 20.0351V13.8003V0.0319403L53.4138 0.615845L53.4059 0.617616C53.3998 0.618979 53.3936 0.62036 53.3874 0.621982C52.9064 0.742378 52.6074 1.11948 52.6074 1.60588V7.32071C51.8323 6.96085 50.9777 6.79219 49.9167 6.78175H49.8852C47.8499 6.78175 46.1554 7.57128 44.9838 9.06578C43.8921 10.4581 43.315 12.391 43.315 14.6549C43.315 17.0621 43.9659 19.0559 45.1967 20.422C46.3131 21.6598 47.8757 22.3417 49.5964 22.3417C50.6659 22.3417 51.4624 22.0972 52.3224 21.8332L52.3225 21.8332C52.565 21.7588 52.8126 21.6828 53.0727 21.6103C54.3491 21.2553 54.9074 21.1344 55.5434 21.0188C56.0314 20.93 56.3231 20.521 56.3231 20.0351ZM49.9844 18.9988C49.0837 18.9988 48.3807 18.6757 47.8952 18.0382C47.3308 17.299 47.0453 16.1601 47.0453 14.6549C47.0453 10.7002 49.0568 10.1097 50.2564 10.1097C51.3744 10.1097 52.1651 10.5702 52.6074 11.4785V17.3791C52.6074 18.2731 51.02 18.9988 49.9844 18.9988Z" fill="#6C41D9"/>
<path fill-rule="evenodd" clip-rule="evenodd" d="M88.7562 18.1562C87.6005 18.1562 86.6641 19.0927 86.6641 20.2484C86.6641 21.404 87.6005 22.3406 88.7562 22.3406C89.9114 22.3406 90.8481 21.404 90.8481 20.2484C90.8481 19.0927 89.9114 18.1562 88.7562 18.1562Z" fill="#FDBF2D"/>
<path fill-rule="evenodd" clip-rule="evenodd" d="M80.2878 27.2734C79.3985 27.2734 78.6272 27.5264 78.0753 27.9797C77.521 28.435 77.1959 29.0863 77.1959 29.8594C77.1959 30.6903 77.484 31.2521 77.926 31.6451C78.3601 32.031 78.9314 32.2435 79.4781 32.4055C79.646 32.4553 79.81 32.5 79.9681 32.5431L79.9682 32.5432L79.9682 32.5432C80.3385 32.6441 80.6761 32.7362 80.9528 32.8628C81.1461 32.9512 81.2935 33.0503 81.3923 33.1683C81.488 33.2827 81.5439 33.4219 81.5439 33.6066C81.5439 33.8627 81.4452 34.0618 81.2601 34.2014C81.0698 34.345 80.7739 34.4357 80.3669 34.4357C80.0494 34.4357 79.7972 34.3904 79.5807 34.3009C79.3647 34.2117 79.1759 34.0751 78.9896 33.8813L78.9896 33.8813L78.9875 33.8792L78.9609 33.8526L78.9609 33.8525C78.8278 33.7189 78.6825 33.5731 78.5069 33.5099C78.297 33.4343 78.0762 33.4817 77.8166 33.6548L77.532 33.8445C77.2867 34.008 77.1618 34.2197 77.1564 34.4489C77.1513 34.6706 77.2588 34.877 77.4107 35.038C78.1563 35.8333 79.0375 36.1767 80.3511 36.1767C81.3296 36.1767 82.1681 35.9424 82.7656 35.4812C83.3679 35.0162 83.7118 34.3307 83.7118 33.4643C83.7118 32.6258 83.422 32.0518 82.9782 31.647C82.5415 31.2487 81.9666 31.0245 81.4147 30.8571C81.222 30.7987 81.0279 30.746 80.8422 30.6957L80.8422 30.6957C80.762 30.6739 80.6834 30.6526 80.6072 30.6315C80.3512 30.5604 80.1197 30.4904 79.924 30.4079C79.7274 30.3251 79.5787 30.2345 79.4798 30.1284C79.3851 30.0266 79.3322 29.9067 79.3322 29.7487C79.3322 29.5129 79.4178 29.3369 79.5681 29.2164C79.7227 29.0924 79.9619 29.0144 80.2878 29.0144C80.7226 29.0144 81.0646 29.1034 81.378 29.3597L81.3788 29.3604C81.4274 29.3996 81.4734 29.4374 81.5163 29.4728C81.5768 29.5226 81.6313 29.5675 81.6785 29.6041C81.7606 29.6677 81.8415 29.7233 81.9285 29.7546C82.1253 29.8253 82.2991 29.7537 82.5147 29.626L82.5151 29.6257L82.8937 29.4049L82.894 29.4048C83.0234 29.3289 83.1209 29.2408 83.1829 29.1386C83.2462 29.0343 83.2675 28.9236 83.2564 28.8145C83.2354 28.6069 83.0993 28.4181 82.9601 28.2706C82.305 27.549 81.4192 27.2734 80.2878 27.2734Z" fill="#6C41D9"/>
<path fill-rule="evenodd" clip-rule="evenodd" d="M87.2605 27.2734C86.3711 27.2734 85.5999 27.5264 85.0479 27.9797C84.4936 28.435 84.1686 29.0863 84.1686 29.8594C84.1686 30.6903 84.4567 31.2521 84.8986 31.6451C85.3328 32.031 85.9041 32.2435 86.4507 32.4055C86.6186 32.4553 86.7827 32.5 86.9408 32.5432L86.9408 32.5432C87.3112 32.6441 87.6487 32.7362 87.9254 32.8628C88.1187 32.9512 88.2662 33.0503 88.3649 33.1683C88.4606 33.2828 88.5165 33.4219 88.5165 33.6066C88.5165 33.8627 88.4178 34.0618 88.2328 34.2014C88.0424 34.345 87.7466 34.4357 87.3395 34.4357C87.022 34.4357 86.7699 34.3904 86.5533 34.3009C86.3373 34.2117 86.1486 34.0751 85.9623 33.8813L85.9602 33.8792L85.9336 33.8526L85.9336 33.8526C85.8004 33.7189 85.6552 33.5731 85.4796 33.5099C85.2697 33.4343 85.0488 33.4817 84.7892 33.6548L84.5046 33.8445C84.2593 34.008 84.1344 34.2197 84.1291 34.4489C84.1239 34.6706 84.2314 34.877 84.3834 35.038C85.129 35.8333 86.0102 36.1767 87.3237 36.1767C88.3022 36.1767 89.1407 35.9425 89.7383 35.4812C90.3406 35.0162 90.6844 34.3307 90.6844 33.4643C90.6844 32.6258 90.3946 32.0518 89.9508 31.647C89.5142 31.2487 88.9393 31.0245 88.3874 30.8571C88.1947 30.7987 88.0006 30.7461 87.8149 30.6957L87.8148 30.6957L87.8148 30.6957C87.7347 30.6739 87.6561 30.6526 87.5799 30.6315C87.3239 30.5604 87.0924 30.4904 86.8967 30.4079C86.7001 30.3251 86.5513 30.2345 86.4525 30.1284C86.3577 30.0266 86.3048 29.9067 86.3048 29.7487C86.3048 29.5129 86.3905 29.3369 86.5408 29.2164C86.6954 29.0924 86.9346 29.0144 87.2605 29.0144C87.6952 29.0144 88.0373 29.1034 88.3506 29.3597L88.3514 29.3604C88.4 29.3996 88.446 29.4374 88.489 29.4728L88.489 29.4728C88.5495 29.5226 88.604 29.5675 88.6512 29.6041C88.7333 29.6677 88.8142 29.7233 88.9011 29.7546C89.098 29.8253 89.2718 29.7537 89.4874 29.626L89.4878 29.6257L89.8666 29.4048C89.9961 29.3289 90.0935 29.2408 90.1555 29.1386C90.2189 29.0343 90.2401 28.9236 90.2291 28.8145C90.2081 28.6069 90.0719 28.4181 89.9327 28.2706C89.2777 27.549 88.3919 27.2734 87.2605 27.2734Z" fill="#6C41D9"/>
<path fill-rule="evenodd" clip-rule="evenodd" d="M48.0689 27.5762C47.9815 27.5762 47.8868 27.5848 47.7984 27.6092C47.7113 27.6332 47.6165 27.6765 47.5456 27.7558C47.4697 27.8408 47.4359 27.9509 47.4487 28.0744C47.4608 28.1909 47.5136 28.3149 47.5985 28.4465L49.6198 31.5609L47.3826 35.0744L47.3823 35.0749C47.2976 35.2063 47.2448 35.3303 47.233 35.4471C47.2204 35.5713 47.2554 35.6819 47.333 35.7667C47.4052 35.8456 47.5016 35.8884 47.5903 35.9121C47.6805 35.9363 47.7777 35.9448 47.8684 35.9448H48.6087C49.1412 35.9448 49.4657 35.6413 49.7128 35.2459L49.7135 35.2448L50.9067 33.3023L52.0989 35.2431C52.2139 35.4398 52.3521 35.616 52.5313 35.743C52.714 35.8726 52.9307 35.9448 53.1893 35.9448H53.9296C54.0203 35.9448 54.1177 35.9363 54.2083 35.9117C54.2975 35.8875 54.3941 35.8439 54.4663 35.7634C54.5434 35.6773 54.5773 35.5659 54.5651 35.4411C54.5535 35.323 54.5013 35.1965 54.4168 35.0611L52.2085 31.561L54.215 28.4464C54.2998 28.3149 54.3527 28.1908 54.3646 28.0738C54.3771 27.9497 54.3421 27.8391 54.2645 27.7543C54.1923 27.6753 54.0959 27.6326 54.0073 27.6089C53.917 27.5847 53.8199 27.5762 53.7291 27.5762H52.9734C52.7148 27.5762 52.4981 27.6484 52.3154 27.7779C52.1361 27.9051 51.9978 28.0814 51.8828 28.2783L50.9221 29.8613L49.9615 28.2783C49.8465 28.0814 49.7082 27.9051 49.5289 27.7779C49.3462 27.6484 49.1295 27.5762 48.8709 27.5762H48.0689Z" fill="#6C41D9"/>
<path fill-rule="evenodd" clip-rule="evenodd" d="M68.5878 27.5419C68.198 27.4032 67.7725 27.3186 67.4345 27.3103L67.4354 27.3093C67.4283 27.3093 67.4216 27.3096 67.4144 27.3096C67.4032 27.3094 67.391 27.3086 67.3804 27.3086C67.3127 27.3086 67.2465 27.3119 67.1805 27.3167C66.5582 27.3525 66.147 27.5162 65.5565 27.6806C64.8365 27.8809 64.5216 27.949 64.1627 28.0145C63.8876 28.0644 63.7227 28.295 63.7227 28.5696V28.9254V32.0872V35.3591C63.7227 35.6779 63.9543 35.9097 64.2732 35.9097H65.2684C65.5875 35.9097 65.819 35.6779 65.819 35.3591V30.91C66.1034 29.6133 66.789 29.3401 67.3157 29.3401C67.5347 29.3401 67.7671 29.3839 68.0069 29.47C68.0739 29.4955 68.1456 29.5092 68.2152 29.5092C68.4636 29.5092 68.6625 29.3437 68.7211 29.0902L68.9386 28.2036C69.0108 27.9154 68.8672 27.6435 68.5878 27.5419Z" fill="#6C41D9"/>
<path fill-rule="evenodd" clip-rule="evenodd" d="M55.3555 32.1679V28.6209C55.3555 28.344 55.5216 28.1115 55.7992 28.0611C56.1609 27.9951 56.4785 27.9264 57.2046 27.7245C57.3524 27.6833 57.493 27.6402 57.6308 27.5979C58.1204 27.4477 58.5739 27.3086 59.1824 27.3086C60.1615 27.3086 61.0505 27.6965 61.6855 28.4008C62.386 29.1775 62.7561 30.3121 62.7561 31.6817C62.7561 32.9695 62.4278 34.0693 61.8067 34.8612C61.1401 35.7116 60.1761 36.1611 59.0184 36.1611H59.0001C58.3965 36.1549 57.9103 36.0588 57.4695 35.8542V39.1056C57.4695 39.3824 57.2994 39.5968 57.0257 39.6654C57.0206 39.6666 57.0157 39.6678 57.0108 39.6687L55.3555 40.001V32.1679ZM60.1504 29.7562C59.8739 29.3938 59.4742 29.21 58.9619 29.21C58.3725 29.21 57.4695 29.6229 57.4695 30.1314V33.4886C57.7212 34.0055 58.1709 34.2673 58.8069 34.2673C59.4894 34.2673 60.6339 33.9314 60.6339 31.6816C60.6339 30.825 60.4711 30.1773 60.1504 29.7562Z" fill="#6C41D9"/>
<path fill-rule="evenodd" clip-rule="evenodd" d="M40.6457 28.4719C41.3208 27.7216 42.2611 27.3086 43.2935 27.3086C44.3482 27.3086 45.2523 27.676 45.9076 28.3712C46.6647 29.1746 47.0379 30.3722 46.9586 31.7438C46.9512 32.0466 46.7143 32.2743 46.4057 32.2743H41.707C41.8824 33.5373 42.5384 34.2561 43.5291 34.2561C44.1215 34.2561 44.7745 34.0801 45.3212 33.774C45.4161 33.7161 45.5155 33.6869 45.6171 33.6869C45.8122 33.6869 45.9859 33.7965 46.0826 33.9807L46.4324 34.5924C46.5132 34.7247 46.5378 34.8738 46.5018 35.0136C46.4656 35.1543 46.371 35.2738 46.2354 35.3501C45.3821 35.8609 44.3864 36.1422 43.4316 36.1422C42.3174 36.1422 41.3675 35.7688 40.6848 35.063C39.9296 34.2829 39.5469 33.1613 39.5469 31.7293C39.5469 30.3969 39.9269 29.2704 40.6457 28.4719ZM41.7972 30.5505H44.7691C44.5852 29.555 43.8894 29.1945 43.3179 29.1945C42.5828 29.1945 42.0381 29.6849 41.7972 30.5505Z" fill="#6C41D9"/>
<path fill-rule="evenodd" clip-rule="evenodd" d="M70.1222 28.4719C70.7973 27.7216 71.7376 27.3086 72.7701 27.3086C73.8247 27.3086 74.7288 27.676 75.3842 28.3712C76.1413 29.1746 76.5145 30.3722 76.4351 31.7438C76.4277 32.0466 76.1909 32.2743 75.8822 32.2743H71.1835C71.359 33.5373 72.0149 34.2561 73.0057 34.2561C73.5981 34.2561 74.2511 34.0801 74.7978 33.774C74.8926 33.7161 74.9921 33.6869 75.0937 33.6869C75.2888 33.6869 75.4624 33.7965 75.5592 33.9807L75.9089 34.5924C75.9898 34.7247 76.0144 34.8738 75.9784 35.0136C75.9422 35.1543 75.8476 35.2738 75.712 35.3501C74.8587 35.8609 73.863 36.1422 72.9082 36.1422C71.794 36.1422 70.844 35.7688 70.1613 35.063C69.4062 34.2829 69.0234 33.1613 69.0234 31.7293C69.0234 30.3969 69.4035 29.2704 70.1222 28.4719ZM71.2738 30.5505H74.2456C74.0617 29.555 73.366 29.1945 72.7944 29.1945C72.0594 29.1945 71.5147 29.6849 71.2738 30.5505Z" fill="#6C41D9"/>
</svg>
